<?xml version="1.0" encoding="UTF-8" standalone="no"?>
<!DOCTYPE svg PUBLIC "-//W3C//DTD SVG 20010904//EN" "http://www.w3.org/TR/2001/REC-SVG-20010904/DTD/svg10.dtd">
<svg version="1.0" xmlns="http://www.w3.org/2000/svg" width="1600.000000pt" height="1600.000000pt" viewBox="0 0 1600.000000 1600.000000" preserveAspectRatio="xMidYMid meet">
<g transform="translate(0.000000,1600.000000) scale(0.100000,-0.100000)" fill="#000000" stroke="none">
<path d="M6705 11738 c-22 -5 -87 -21 -145 -35 -599 -145 -1185 -405 -1672 -743 -159 -110 -527 -397 -483 -377 6 2 35 16 65 30 30 14 100 46 155 72 799 376 1398 581 2055 704 306 58 700 109 851 112 62 2 54 3 -47 10 -221 14 -328 44 -567 161 -87 43 -162 78 -165 77 -4 -1 -25 -5 -47 -11z"/>
<path d="M9496 11669 c-231 -118 -378 -156 -616 -161 -72 -1 -79 -3 -30 -5 73 -3 288 -26 460 -49 821 -109 1514 -326 2455 -769 55 -26 125 -58 155 -72 30 -14 58 -27 63 -30 53 -31 -176 156 -353 289 -519 388 -1072 643 -1797 828 -191 49 -178 50 -337 -31z"/>
<path d="M11131 11666 c2 -2 33 -16 69 -31 142 -59 478 -223 605 -295 39 -22 77 -43 85 -47 23 -11 216 -130 306 -190 95 -62 129 -107 274 -358 147 -256 426 -838 505 -1055 7 -19 48 -132 92 -250 146 -391 260 -760 361 -1170 124 -498 193 -853 272 -1395 31 -213 76 -634 101 -943 l12 -153 -89 -91 c-761 -769 -1876 -1245 -3150 -1344 l-81 -6 -204 256 c-112 141 -205 260 -207 265 -1 4 46 25 105 46 748 262 1396 662 1928 1188 83 82 143 145 135 141 -8 -5 -80 -52 -160 -105 -933 -620 -2028 -966 -3330 -1051 -238 -16 -892 -16 -1130 0 -1302 85 -2399 431 -3330 1051 -80 54 -152 101 -160 105 -8 4 53 -59 135 -141 531 -525 1165 -917 1919 -1185 61 -21 112 -41 114 -43 3 -3 -1 -13 -10 -22 -8 -10 -102 -127 -208 -261 l-193 -244 -86 7 c-1257 94 -2386 576 -3145 1343 l-89 90 12 159 c90 1163 301 2241 628 3213 61 181 218 591 293 765 158 368 441 911 566 1084 27 39 68 72 177 143 170 111 161 105 267 164 47 26 101 56 120 67 61 34 264 136 294 147 16 6 27 13 24 15 -3 3 -36 -8 -74 -24 -324 -137 -538 -249 -769 -404 -251 -168 -467 -388 -643 -653 -375 -567 -787 -1603 -1043 -2624 -176 -700 -306 -1465 -339 -1995 -38 -598 102 -987 492 -1360 118 -113 297 -254 460 -363 375 -251 873 -486 1345 -633 254 -79 577 -155 813 -191 117 -18 515 -17 595 1 92 20 244 71 300 98 123 62 220 137 394 306 303 295 338 303 1027 256 430 -30 968 -30 1398 0 684 47 725 37 1015 -245 173 -168 281 -253 391 -309 69 -34 215 -84 315 -106 80 -18 478 -19 595 -1 458 70 1018 236 1435 427 691 316 1215 707 1458 1088 125 195 196 417 218 685 41 496 -157 1720 -442 2724 -65 228 -223 712 -284 868 -20 52 -57 147 -82 210 -144 368 -339 777 -491 1030 -199 333 -416 569 -707 772 -256 179 -641 370 -1054 524 -139 52 -159 59 -150 50z"/>
<path d="M6426 8640 c-378 -46 -692 -363 -766 -771 -17 -95 -14 -287 6 -382 79 -372 360 -660 712 -730 258 -52 534 28 734 212 179 166 279 367 309 625 46 391 -165 792 -505 960 -151 75 -326 106 -490 86z m189 -1413 c1 -1 11 -16 23 -34 28 -40 28 -94 0 -144 -18 -33 -28 -39 -65 -45 -42 -6 -47 -4 -84 32 -35 34 -39 43 -39 89 0 46 3 53 42 86 39 34 44 36 82 27 22 -5 41 -10 41 -11z"/>
<path d="M9742 8639 c-172 -20 -346 -107 -482 -239 -170 -165 -261 -353 -291 -603 -29 -237 47 -513 194 -705 330 -429 923 -470 1299 -91 163 164 258 371 277 602 43 526 -303 981 -787 1037 -97 11 -107 11 -210 -1z m206 -1437 c17 -21 33 -53 37 -73 5 -29 2 -41 -25 -74 -40 -51 -47 -55 -92 -55 -33 0 -42 6 -73 47 -24 32 -34 54 -31 68 3 11 6 27 6 35 0 9 14 32 31 53 27 32 36 37 74 37 38 0 47 -4 73 -38z"/>
</g>
</svg>
